<svg width="60" height="60" viewBox="0 0 60 60" fill="none" xmlns="http://www.w3.org/2000/svg">
<path fill-rule="evenodd" clip-rule="evenodd" d="M30 2.5C14.8125 2.5 2.5 14.8125 2.5 30C2.5 45.1875 14.8125 57.5 30 57.5C45.1875 57.5 57.5 45.1875 57.5 30C57.5 14.8125 45.1875 2.5 30 2.5ZM32.5 40C32.5 40.663 32.2366 41.2989 31.7678 41.7678C31.2989 42.2366 30.663 42.5 30 42.5C29.337 42.5 28.7011 42.2366 28.2322 41.7678C27.7634 41.2989 27.5 40.663 27.5 40V32.5H20C19.337 32.5 18.7011 32.2366 18.2322 31.7678C17.7634 31.2989 17.5 30.663 17.5 30C17.5 29.337 17.7634 28.7011 18.2322 28.2322C18.7011 27.7634 19.337 27.5 20 27.5H27.5V20C27.5 19.337 27.7634 18.7011 28.2322 18.2322C28.7011 17.7634 29.337 17.5 30 17.5C30.663 17.5 31.2989 17.7634 31.7678 18.2322C32.2366 18.7011 32.5 19.337 32.5 20V27.5H40C40.663 27.5 41.2989 27.7634 41.7678 28.2322C42.2366 28.7011 42.5 29.337 42.5 30C42.5 30.663 42.2366 31.2989 41.7678 31.7678C41.2989 32.2366 40.663 32.5 40 32.5H32.5V40Z" fill="#57CBD2"/>
</svg>
