<svg width="60" height="60" viewBox="0 0 60 60" fill="none" xmlns="http://www.w3.org/2000/svg">
<path d="M40.1602 20.7891C40.1602 20.5312 39.9492 20.3203 39.6914 20.3203L35.8242 20.3379L30 27.2813L24.1816 20.3438L20.3086 20.3262C20.0508 20.3262 19.8398 20.5313 19.8398 20.7949C19.8398 20.9063 19.8809 21.0117 19.9512 21.0996L27.5742 30.1816L19.9512 39.2578C19.8804 39.3437 19.8411 39.4512 19.8398 39.5625C19.8398 39.8203 20.0508 40.0313 20.3086 40.0313L24.1816 40.0137L30 33.0703L35.8184 40.0078L39.6855 40.0254C39.9434 40.0254 40.1543 39.8203 40.1543 39.5566C40.1543 39.4453 40.1133 39.3398 40.043 39.252L32.4316 30.1758L40.0547 21.0938C40.125 21.0117 40.1602 20.9004 40.1602 20.7891Z" fill="white"/>
<path d="M30 3.80859C15.5039 3.80859 3.75 15.5625 3.75 30.0586C3.75 44.5547 15.5039 56.3086 30 56.3086C44.4961 56.3086 56.25 44.5547 56.25 30.0586C56.25 15.5625 44.4961 3.80859 30 3.80859ZM30 51.8555C17.9648 51.8555 8.20312 42.0937 8.20312 30.0586C8.20312 18.0234 17.9648 8.26172 30 8.26172C42.0352 8.26172 51.7969 18.0234 51.7969 30.0586C51.7969 42.0937 42.0352 51.8555 30 51.8555Z" fill="white"/>
</svg>
